<svg xmlns="http://www.w3.org/2000/svg" width="1551.19" height="260.43" aria-label="Sigmentum" viewBox="76.33 70.81 1551.19 260.43"><path fill="#FFF" d="M150.68 234.79c8.36 1.04 17.7-4.2 14.93-14.42-2.92-9.83-13.72-12.18-22.73-15.67-36.37-9.77-79.3-20.25-60.56-68.4 11.57-18.32 40.9-16.53 60.14-17.3 16.64 0 37.73-.75 54.26-.37 4.3.63 1.75 6.1 2.42 12.23-.03 4.56.1 8.43-.13 9.66-.42 1.35-1.52.94-2.88 1.02h-44.5c-11.36.45-39.16-1.05-32.82 17.4 4.62 9.97 22.12 13.16 30.85 15.6 18.84 5.62 42.29 11.94 52.23 30.3 10.82 23.44-.23 51.12-27.2 54.77-11.46 1.35-21.85.84-32.1.87-15.76-.58-56.46 0-63.92-.36-.32-.1-.5-.31-.6-.76.03-5.66-.77-18.7.37-23.95 1.27-.9 2.3-.82 4.15-.86 18.03.16 57.46-.3 67.69.16ZM253.2 118.54c9.7.15 27.87-.47 36.76.22.05 4.54.15 136.68-.05 141.21-10.3.57-27.27.3-37.25.12-.34-1.12-.05-30.69-.15-62.57.27-21.8-.55-64.75.3-78.94Zm-1.45-39.14c4.05-9.06 16.53-8.74 25.1-8.7 13.96-.72 23.06 13.65 14.97 25.14-5.23 7.23-14.27 6.2-22.2 5.91-14.12 1.9-22.42-8.6-18.12-21.8Zm135.09 220.27c28.55 10.17 67.02 2.53 70.91-32.76.05-19.67-.05-59.92-.04-72.11.6-23.46-15.4-50.47-40.35-51.92-19.45 2.46-37.36 18.85-39.63 38.36-4.94 21.87 4.36 45.95 25.48 54.37 13.58 6.34 29.85 3.91 41.9-4.68 2.98-2.57 8.54-2.96 12.86-2.72 4.3.3 1.75 6 2.42 12.72-.06 5.15.15 10.2-.13 12.64-.28 2.03-1.51 3.17-3.66 4.45-10.39 5.86-22.64 6.76-34.23 6.94-38.8 2.15-72.82-13.23-81.17-53.9-25.24-111.2 144.38-128.07 156.08-33.29.55 27.5.67 59.94-.03 86.5-4.57 48.6-44.4 69.84-89.84 65.66-15.64.05-31.96-2.54-45.8-8.53-1.93-.93-.78-3.3.74-8.45 1.53-4.91 3.26-11 4.16-13.45.65-2.06 2.76-2.04 6.45-2.04 5.18-.1 8.5.7 12.93 1.96Zm147.92-138.44c.24-28.06 29.22-46.37 55.42-44.59 14.42-.47 30.2-.32 41.73 9.38 2.01 1.36 3.86 1.2 5.85-.02 20.39-13.68 58.32-13.3 78.3 1.57 22.66 15.05 15.62 38.14 16.63 62.64-.07 19.08.29 54.77-.21 69.63-.33.45-2.53.42-5.7.43-9.24 0-23.22.18-31.12-.16-1.37-9-.05-21.5-.5-38.89-.82-32.51 1.68-45.07-1.07-61.17-2.49-8.01-10.51-18.66-19.9-18.52-11.4 1.63-20.92 18.57-20.69 27.81v70.58c-.01 9.65.01 17.06-.02 19.31.1.97-1.08 1.03-4.62 1.04-9.61.1-19.44-.07-29.44 0-2.17-.16-2.98.37-3.15-1.07-.02-7.1 0-63.82 0-81.6 0-5.48.14-9.85-1.3-15.69-2.5-11.65-14.88-25.45-27.65-18.71-16.02 7.7-15.22 28.3-15.08 43.97-.01 21.8.01 65.75-.01 72 .09 1.02-1.09 1.08-4.64 1.1-9.76.11-19.79-.08-29.94 0-1.63-.14-2.45.32-2.91-.67-.22-5.26.06-76.83 0-97.76Zm332.08-5.99c-28.8-33.87-68.66 8.4-64.07 42.46 3.97 45.67 64.43 60.05 77.12 10.75 2.1-4.4 1.92-10.36 5.38-12.4 5.17-1.04 9.9-.35 15.58-.12 6.48.77 15.67.35 19.7 1.96 4.6 14.66-4.2 31.7-15 43.84-15.37 17.88-39.2 24.53-62.21 23.26-41.63 3.69-82.04-27.95-80.34-71.5-2.39-51.02 44.07-82.42 91.28-76.76 27.99 1.06 52.54 22.98 64.17 46.17-8.6 5.99-90.9 49.2-96.83 52.77-2.34.52-5.67.22-8.83.25-2.36-.08-3.52-.46-4.48-1.95-1.85-3.04-6.74-12.03-8.93-15.9-.73-1.62-1.64-2.2-.83-3.17 3.78-2.79 55-30.24 68.47-39.4Zm94.06 17.79c-.11-25.07 18.8-50.96 43.92-56.43 29.36-6.34 64.34-2.51 82.24 24.98 10.56 21.38 5.44 29.82 6.66 57.97v56.79c-.23 3.51 1.38 4.02-4.64 3.94h-4.85c-7.8.05-19.48-.03-26.63 0-2.2-.19-3.22.47-3.71-.78-.41-9.82.6-68.16-.4-87.58-4.37-36.48-40.3-42.63-52.9-6.47-2.92 8.21-2.18 14.37-2.24 23.3-.01 22.14.02 64.33-.01 70.43.09 1.02-1.09 1.09-4.63 1.1-9.8-.32-26.56.77-32.75-.5-.39-3.32.04-68.52-.09-86.13Zm175.68-89.31c10.86-.17 22.05 0 34.64-.06 4.14-.03 4.1-.2 3.99 5.57v23.72c-.42 8.35.83 4.85 9.68 5.56 13.78.02 38.66-.05 42.9.03.76.23 1.06.39 1.1 1.46-.22 6.64.77 17.18-.4 23.63-1.06.58-8.89.12-18.57.27-9.96.52-28.64-1.03-34.65.58-.12.97-.03 4.46-.06 9.58v60.65c.08 7.09.6 17.5 9.46 19.28 11.37 2.64 27.75-.51 40.34.8 1.52.36 1.58 1.45 1.58 3.74v8.86c-.38 4.35.89 9.88-.7 12.59-8.39.61-28.09-.09-37.25.45-12.8.2-27.87 1.2-38.23-7.86-10.78-9.7-14.96-25.5-14.77-39.1.52-7.52-.95-99.29.5-129.69Zm152.92 34.96c.72 21.3 0 76.05.25 84.7.03 4.58.55 10.1 2.14 14.65 13.1 32 45.32 24.6 52.36-7.28 2.44-15.67.41-39.75 1.05-70.84 0-10-.02-17.9 0-20.3-.08-1.02 1.1-1.09 4.64-1.1a1630 1630 0 0 1 32 .09c.37.13.79.26.84.71.01 13.63.07 75.35.04 79.7 3.17 27.4-14.48 58.69-42.8 64.24-30.46 5.5-72.24 1.3-83.35-32.93-7.17-22.27-3.61-43.25-4.44-67.34.09-18.28-.14-32.6.07-43.68.37-1.34 7.33-.61 9.43-.8 7.12.09 20.38-.15 27.53.1Zm137.54 42.55c.24-28.06 29.21-46.37 55.41-44.59 14.43-.47 30.2-.32 41.74 9.38 2 1.36 3.85 1.2 5.85-.02 20.39-13.68 58.32-13.3 78.3 1.57 22.66 15.05 15.62 38.15 16.63 62.64-.07 19.08.3 54.77-.22 69.63-.32.45-2.53.42-5.7.43-9.23 0-23.21.18-31.11-.16-1.37-9-.06-21.5-.5-38.89-.82-32.51 1.68-45.07-1.08-61.17-2.48-8.02-10.5-18.66-19.9-18.52-11.38 1.63-20.91 18.57-20.68 27.81v70.58c-.01 9.65 0 17.06-.02 19.31.09.97-1.08 1.03-4.63 1.04-9.6.1-19.43-.07-29.43 0-2.18-.16-2.98.37-3.15-1.07v-81.6c-.01-5.48.14-9.85-1.3-15.69-2.5-11.64-14.88-25.45-27.64-18.71-16.03 7.7-15.23 28.3-15.1 43.97 0 21.8.02 65.75 0 72 .08 1.02-1.09 1.08-4.64 1.1-9.76.11-19.79-.08-29.94 0-1.63-.14-2.45.32-2.91-.67-.22-5.26.06-76.83 0-97.76Zm0 0"/></svg>